<svg id="Group_7" data-name="Group 7" xmlns="http://www.w3.org/2000/svg" xmlns:xlink="http://www.w3.org/1999/xlink" width="87" height="72.814" viewBox="0 0 87 72.814">
  <defs>
    <clipPath id="clip-path">
      <rect id="Rectangle_9" data-name="Rectangle 9" width="87" height="72.814" fill="none"/>
    </clipPath>
    <clipPath id="clip-path-2">
      <rect id="Rectangle_10" data-name="Rectangle 10" width="66.612" height="12.687" fill="none"/>
    </clipPath>
  </defs>
  <path id="Path_2" data-name="Path 2" d="M162.657,0l-1.5,4.623h-4.861l3.933,2.857-1.5,4.623,3.933-2.857L166.59,12.1l-1.5-4.623,3.933-2.857h-4.861Z" transform="translate(-118.999 10.721)" fill="#29ccb1"/>
  <path id="Path_3" data-name="Path 3" d="M246.259,33.7l1.218,3.749h3.942l-3.189,2.317,1.218,3.749L246.259,41.2l-3.189,2.317,1.218-3.749L241.1,37.451h3.942Z" transform="translate(-183.567 -14.94)" fill="#29ccb1"/>
  <path id="Path_5" data-name="Path 5" d="M86.733,30.157l-1.218,3.749H81.573l3.189,2.317-1.218,3.749,3.189-2.317,3.189,2.317L88.7,36.223l3.189-2.317H87.951Z" transform="translate(-62.108 -12.24)" fill="#29ccb1"/>
  <g id="Group_3" data-name="Group 3">
    <g id="Group_2" data-name="Group 2" clip-path="url(#clip-path)">
      <path id="Path_7" data-name="Path 7" d="M84.807,154.662s-30.978-1.99-41.307-1.99-41.307,1.99-41.307,1.99A2.193,2.193,0,0,1,0,152.469V129.256a2.193,2.193,0,0,1,2.193-2.193s23.029-3.29,41.307-3.29c19.557,0,41.307,3.29,41.307,3.29A2.193,2.193,0,0,1,87,129.256v23.212a2.193,2.193,0,0,1-2.193,2.193" transform="translate(0 -94.238)" fill="#00a88e"/>
      <path id="Path_8" data-name="Path 8" d="M143.906,243.073a132.141,132.141,0,0,0-16.706-.894,136.016,136.016,0,0,0-16.389.894.879.879,0,0,0-.879.879l1.436,11.247a.879.879,0,0,0,.879.879,122.3,122.3,0,0,0,15.111,1.127,81.4,81.4,0,0,0,14.731-1.433.879.879,0,0,0,.879-.879l1.817-10.941a.879.879,0,0,0-.879-.879" transform="translate(-83.7 -184.39)" fill="#006d58"/>
      <path id="Path_9" data-name="Path 9" d="M137.966,264.648a3.766,3.766,0,0,1-1.5-1.474,4.889,4.889,0,0,1,0-4.529,3.769,3.769,0,0,1,1.5-1.475,4.307,4.307,0,0,1,2.071-.509,4.743,4.743,0,0,1,1.773.334,3.416,3.416,0,0,1,1.4,1.03,3.318,3.318,0,0,1,.7,1.726h-1.943a1.5,1.5,0,0,0-.7-.977,2.435,2.435,0,0,0-2.387-.041,2.043,2.043,0,0,0-.807.849,3.161,3.161,0,0,0,0,2.656,2.041,2.041,0,0,0,.807.849,2.434,2.434,0,0,0,2.387-.041,1.5,1.5,0,0,0,.7-.977h1.943a3.316,3.316,0,0,1-.7,1.726,3.415,3.415,0,0,1-1.4,1.03,4.744,4.744,0,0,1-1.773.334,4.305,4.305,0,0,1-2.071-.509" transform="translate(-103.476 -195.417)" fill="#fff"/>
      <path id="Path_10" data-name="Path 10" d="M175.5,265.251a3,3,0,0,1-1.269-1.164,3.568,3.568,0,0,1-.468-1.884v-4.9h1.849v4.9a1.519,1.519,0,0,0,.5,1.252,1.8,1.8,0,0,0,1.17.409,1.817,1.817,0,0,0,1.182-.409,1.52,1.52,0,0,0,.5-1.252v-4.9h1.849v4.9a3.6,3.6,0,0,1-.468,1.89,2.951,2.951,0,0,1-1.27,1.164,4.086,4.086,0,0,1-1.8.386,4.007,4.007,0,0,1-1.785-.392" transform="translate(-132.302 -195.902)" fill="#fff"/>
      <path id="Path_11" data-name="Path 11" d="M212.434,257.3a3.134,3.134,0,0,1,1.521.351,2.377,2.377,0,0,1,.977.965,3.074,3.074,0,0,1,0,2.785,2.339,2.339,0,0,1-.977.96,3.173,3.173,0,0,1-1.521.345h-1.756v2.785h-1.849V257.3Zm-.152,3.733a1.127,1.127,0,0,0,.831-.281,1.011,1.011,0,0,0,.281-.749.992.992,0,0,0-.281-.743,1.143,1.143,0,0,0-.831-.275h-1.6v2.048Z" transform="translate(-158.998 -195.901)" fill="#fff"/>
    </g>
  </g>
  <g id="Group_5" data-name="Group 5" transform="translate(10.194 38.635)">
    <g id="Group_4" data-name="Group 4" clip-path="url(#clip-path-2)">
      <path id="Path_12" data-name="Path 12" d="M83.766,165.494h-.229v-.857H81.929v7.376h1.607v-3.857c0-1.316.608-2.081,1.806-2.081H86.36v-1.622h-.589a2.1,2.1,0,0,0-2,1.041m10.6,6.519h1.607v-10.1H94.362Zm-3.312-4.377-1.071-.107c-.842-.077-1.285-.306-1.285-.8,0-.581.566-.918,1.377-.918.842,0,1.377.4,1.423.964H93.04c-.061-1.438-1.178-2.326-2.953-2.326-1.791,0-3,.949-3,2.341,0,1.163.734,1.913,2.4,2.081l1.087.107c.658.061,1.1.2,1.1.826,0,.566-.414.979-1.5.979a1.518,1.518,0,0,1-1.667-1.063H86.839c.167,1.391,1.335,2.471,3.339,2.471,1.882,0,3.106-.995,3.106-2.464,0-1.3-.857-1.959-2.234-2.1m10.061-3H99.152l-2.341,3.076v.964l2.4,3.336h1.99l-2.816-3.826Zm6.446,0-1.316,2.923a10.374,10.374,0,0,0-.719,1.852h-.23a10.513,10.513,0,0,0-.734-1.836l-1.316-2.938h-1.775l3.091,6.626-1.531,3.336h1.714l4.591-9.963Zm-58.088,0H47.51l-2.341,3.076v.964l2.4,3.336h1.989l-2.816-3.826Zm-6.749,7.376h1.607v-10.1H42.72Zm10.9-7.56c-1.76,0-3.076.918-3.229,2.326h1.729c.122-.52.6-.9,1.5-.9,1.163,0,1.546.612,1.546,1.362v2.525a2.908,2.908,0,0,1-2.188,1.1c-.8,0-1.347-.383-1.347-1.071,0-.658.429-1.071,1.255-1.071h1.285V167.56H52.842c-1.836,0-2.862.918-2.862,2.326a2.356,2.356,0,0,0,2.632,2.311,3.942,3.942,0,0,0,2.326-.811h.23v.628h1.607v-4.928c0-1.821-1.24-2.632-3.152-2.632m25.331,5.273a1.778,1.778,0,0,1-1.709,1.017c-1.178,0-2.05-.765-2.05-2.418,0-1.576.811-2.448,2.066-2.448a1.678,1.678,0,0,1,1.821,1.683H76.188v1.163h4.469v-.765a3.278,3.278,0,0,0-3.413-3.5,3.878,3.878,0,0,0,0,7.744,3.3,3.3,0,0,0,3.3-2.471Zm-16.784-2.09-1.071-.107c-.842-.077-1.285-.306-1.285-.8,0-.581.566-.918,1.377-.918.842,0,1.378.4,1.423.964h1.546c-.061-1.438-1.178-2.326-2.953-2.326-1.791,0-3,.949-3,2.341,0,1.163.735,1.913,2.4,2.081l1.086.107c.658.061,1.1.2,1.1.826,0,.566-.413.979-1.5.979a1.518,1.518,0,0,1-1.667-1.063H57.959c.167,1.391,1.335,2.471,3.339,2.471,1.882,0,3.107-.995,3.107-2.464,0-1.3-.857-1.959-2.234-2.1m10.56.658c0,2.525-1.541,3.719-3.469,3.719H68.083V170.5h1.086c1.163,0,1.938-.627,1.938-2.2,0-1.561-.733-2.342-1.973-2.342-1.194,0-2.047.735-2.047,2.311V174.6H65.481v-9.963h1.607v.857h.23a2.609,2.609,0,0,1,2.154-1.041c1.775,0,3.258,1.285,3.258,3.841" transform="translate(-42.72 -161.913)" fill="#fff"/>
    </g>
  </g>
</svg>
