<?xml version="1.0" encoding="UTF-8"?>
<svg id="Layer_1" xmlns="http://www.w3.org/2000/svg" version="1.1" viewBox="0 0 87 62.1">
  <!-- Generator: Adobe Illustrator 30.0.0, SVG Export Plug-In . SVG Version: 2.1.1 Build 123)  -->
  <defs>
    <style>
      .st0 {
        fill: #fff;
      }

      .st1 {
        fill: #29ccb1;
      }

      .st2 {
        fill: #00a88e;
      }

      .st3 {
        fill: #006d58;
      }
    </style>
  </defs>
  <path id="Path_2" class="st1" d="M43.7,0l-1.5,4.6h-4.9l3.9,2.9-1.5,4.6,3.9-2.9,3.9,2.9-1.5-4.6,3.9-2.9h-4.9L43.7,0Z"/>
  <path id="Path_3" class="st1" d="M62.7,8l1.2,3.7h3.9l-3.2,2.3,1.2,3.7-3.2-2.3-3.2,2.3,1.2-3.7-3.2-2.3h3.9l1.2-3.8Z"/>
  <path id="Path_5" class="st1" d="M24.6,7.2l-1.2,3.7h-3.9l3.2,2.3-1.2,3.7,3.2-2.3,3.2,2.3-1.2-3.7,3.2-2.3h-3.9l-1.2-3.7Z"/>
  <path id="Path_7" class="st2" d="M84.8,49.7s-31-2-41.3-2-41.3,2-41.3,2C1,49.7,0,48.7,0,47.5s0,0,0,0v-23.2c0-1.2,1-2.2,2.2-2.2h0s23-3.3,41.3-3.3,41.3,3.3,41.3,3.3c1.2,0,2.2,1,2.2,2.2h0v23.2c0,1.2-1,2.2-2.2,2.2"/>
  <path id="Path_8" class="st3" d="M60.2,48c-5.5-.7-11.1-.9-16.7-.9-5.5,0-10.9.3-16.4.9-.5,0-.9.4-.9.9l1.4,11.2c0,.5.4.9.9.9h0c5,.7,10.1,1.1,15.1,1.1,4.9,0,9.9-.5,14.7-1.4.5,0,.9-.4.9-.9l1.8-10.9c0-.5-.4-.9-.9-.9"/>
  <path id="Path_9" class="st0" d="M34.5,58.5c-.6-.3-1.2-.9-1.5-1.5-.7-1.4-.7-3.1,0-4.5.3-.6.9-1.1,1.5-1.5.6-.3,1.3-.5,2.1-.5.6,0,1.2.1,1.8.3.5.2,1,.6,1.4,1,.4.5.6,1.1.7,1.7h-1.9c0-.4-.3-.8-.7-1-.7-.4-1.6-.4-2.4,0-.3.2-.6.5-.8.8-.4.8-.4,1.8,0,2.7.2.4.5.7.8.8.7.4,1.7.4,2.4,0,.4-.2.6-.6.7-1h1.9c0,.6-.3,1.2-.7,1.7-.4.5-.9.8-1.4,1-.6.2-1.2.3-1.8.3-.7,0-1.4-.2-2.1-.5"/>
  <path id="Path_10" class="st0" d="M43.2,58.6c-.5-.3-1-.7-1.3-1.2-.3-.6-.5-1.2-.5-1.9v-4.9h1.8v4.9c0,.5.1.9.5,1.3.3.3.7.4,1.2.4.4,0,.8-.1,1.2-.4.4-.3.5-.8.5-1.3v-4.9h1.8v4.9c0,.7-.1,1.3-.5,1.9-.3.5-.7.9-1.3,1.2-.6.3-1.2.4-1.8.4-.6,0-1.2-.1-1.8-.4"/>
  <path id="Path_11" class="st0" d="M53.4,50.7c.5,0,1.1.1,1.5.4.4.2.8.6,1,1,.4.9.4,1.9,0,2.8-.2.4-.6.7-1,1-.5.2-1,.4-1.5.3h-1.8v2.8h-1.8v-8.2h3.6ZM53.3,54.4c.3,0,.6,0,.8-.3.2-.2.3-.5.3-.7,0-.3,0-.5-.3-.7-.2-.2-.5-.3-.8-.3h-1.6v2h1.6Z"/>
  <path id="Path_12" class="st0" d="M51.2,31.5h-.2v-.9h-1.6v7.4h1.6v-3.9c0-1.3.6-2.1,1.8-2.1h1v-1.6h-.6c-.8,0-1.6.3-2,1M61.8,38h1.6v-10.1h-1.6v10.1ZM58.5,33.6h-1.1c-.8-.2-1.3-.4-1.3-.9s.6-.9,1.4-.9,1.4.4,1.4,1h1.5c0-1.4-1.2-2.3-3-2.3s-3,.9-3,2.3.7,1.9,2.4,2.1h1.1c.7.2,1.1.3,1.1.9s-.4,1-1.5,1c-.7.1-1.4-.3-1.7-1.1h-1.7c.2,1.4,1.3,2.5,3.3,2.5s3.1-1,3.1-2.5-.9-2-2.2-2.1M68.6,30.6h-2l-2.3,3.1v1l2.4,3.3h2l-2.8-3.8,2.7-3.6ZM75,30.6l-1.3,2.9c-.3.6-.5,1.2-.7,1.9h-.2c-.2-.6-.4-1.2-.7-1.8l-1.3-2.9h-1.8l3.1,6.6-1.5,3.3h1.7l4.6-10h-1.8ZM16.9,30.6h-2l-2.3,3.1v1l2.4,3.3h2l-2.8-3.8,2.7-3.6ZM10.2,38h1.6v-10.1h-1.6v10.1ZM21.1,30.4c-1.8,0-3.1.9-3.2,2.3h1.7c.1-.5.6-.9,1.5-.9s1.5.6,1.5,1.4v2.5c-.5.7-1.3,1.1-2.2,1.1-.8,0-1.3-.4-1.3-1.1s.4-1.1,1.3-1.1h1.3v-1.2h-1.3c-1.8,0-2.9.9-2.9,2.3,0,1.3,1.1,2.3,2.4,2.3,0,0,.2,0,.2,0,.8,0,1.7-.3,2.3-.8h.2v.6h1.6v-4.9c0-1.8-1.2-2.6-3.2-2.6M46.4,35.7c-.3.7-1,1.1-1.7,1-1.2,0-2.1-.8-2.1-2.4s.8-2.4,2.1-2.4c.9,0,1.7.6,1.8,1.5,0,0,0,.1,0,.2h-2.9v1.2h4.5v-.8c.1-1.8-1.2-3.4-3-3.5-.1,0-.2,0-.4,0-2.1.1-3.8,1.9-3.7,4.1.1,2,1.7,3.5,3.7,3.7,1.5,0,2.9-1,3.3-2.5h-1.6ZM29.6,33.6h-1.1c-.8-.2-1.3-.4-1.3-.9s.6-.9,1.4-.9,1.4.4,1.4,1h1.5c0-1.4-1.2-2.3-3-2.3s-3,.9-3,2.3.7,1.9,2.4,2.1h1.1c.7.2,1.1.3,1.1.9s-.4,1-1.5,1c-.7.1-1.4-.3-1.7-1.1h-1.7c.2,1.4,1.3,2.5,3.3,2.5s3.1-1,3.1-2.5-.9-2-2.2-2.1M40.2,34.3c0,2.5-1.5,3.7-3.5,3.7h-1.2v-1.5h1.1c1.2,0,1.9-.6,1.9-2.2s-.7-2.3-2-2.3-2,.7-2,2.3v6.3h-1.6v-10h1.6v.9h.2c.5-.7,1.3-1.1,2.2-1,1.8,0,3.3,1.3,3.3,3.8"/>
</svg>